<svg width="216" height="41" viewBox="0 0 216 41" fill="none" xmlns="http://www.w3.org/2000/svg">
<path d="M60.68 6.57V31H55.78V20.605H45.315V31H40.415V6.57H45.315V16.615H55.78V6.57H60.68ZM74.1129 31.315C72.2462 31.315 70.5662 30.9067 69.0729 30.09C67.5796 29.25 66.4012 28.0717 65.5379 26.555C64.6979 25.0383 64.2779 23.2883 64.2779 21.305C64.2779 19.3217 64.7096 17.5717 65.5729 16.055C66.4596 14.5383 67.6612 13.3717 69.1779 12.555C70.6946 11.715 72.3862 11.295 74.2529 11.295C76.1196 11.295 77.8112 11.715 79.3279 12.555C80.8446 13.3717 82.0346 14.5383 82.8979 16.055C83.7846 17.5717 84.2279 19.3217 84.2279 21.305C84.2279 23.2883 83.7729 25.0383 82.8629 26.555C81.9762 28.0717 80.7629 29.25 79.2229 30.09C77.7062 30.9067 76.0029 31.315 74.1129 31.315ZM74.1129 27.045C74.9996 27.045 75.8279 26.835 76.5979 26.415C77.3912 25.9717 78.0212 25.3183 78.4879 24.455C78.9546 23.5917 79.1879 22.5417 79.1879 21.305C79.1879 19.4617 78.6979 18.05 77.7179 17.07C76.7612 16.0667 75.5829 15.565 74.1829 15.565C72.7829 15.565 71.6046 16.0667 70.6479 17.07C69.7146 18.05 69.2479 19.4617 69.2479 21.305C69.2479 23.1483 69.7029 24.5717 70.6129 25.575C71.5462 26.555 72.7129 27.045 74.1129 27.045ZM92.7222 5.1V31H87.8222V5.1H92.7222ZM121.643 11.33C124.023 11.33 125.937 12.065 127.383 13.535C128.853 14.9817 129.588 17.0117 129.588 19.625V31H124.688V20.29C124.688 18.7733 124.303 17.6183 123.533 16.825C122.763 16.0083 121.713 15.6 120.383 15.6C119.053 15.6 117.992 16.0083 117.198 16.825C116.428 17.6183 116.043 18.7733 116.043 20.29V31H111.143V20.29C111.143 18.7733 110.758 17.6183 109.988 16.825C109.218 16.0083 108.168 15.6 106.838 15.6C105.485 15.6 104.412 16.0083 103.618 16.825C102.848 17.6183 102.463 18.7733 102.463 20.29V31H97.5634V11.61H102.463V13.955C103.093 13.1383 103.898 12.4967 104.878 12.03C105.882 11.5633 106.978 11.33 108.168 11.33C109.685 11.33 111.038 11.6567 112.228 12.31C113.418 12.94 114.34 13.85 114.993 15.04C115.623 13.92 116.533 13.0217 117.723 12.345C118.937 11.6683 120.243 11.33 121.643 11.33ZM139.138 14.445C139.768 13.5117 140.632 12.7533 141.728 12.17C142.848 11.5867 144.12 11.295 145.543 11.295C147.2 11.295 148.693 11.7033 150.023 12.52C151.377 13.3367 152.438 14.5033 153.208 16.02C154.002 17.5133 154.398 19.2517 154.398 21.235C154.398 23.2183 154.002 24.98 153.208 26.52C152.438 28.0367 151.377 29.215 150.023 30.055C148.693 30.895 147.2 31.315 145.543 31.315C144.097 31.315 142.825 31.035 141.728 30.475C140.655 29.8917 139.792 29.145 139.138 28.235V31H134.238V5.1H139.138V14.445ZM149.393 21.235C149.393 20.0683 149.148 19.065 148.658 18.225C148.192 17.3617 147.562 16.7083 146.768 16.265C145.998 15.8217 145.158 15.6 144.248 15.6C143.362 15.6 142.522 15.8333 141.728 16.3C140.958 16.7433 140.328 17.3967 139.838 18.26C139.372 19.1233 139.138 20.1383 139.138 21.305C139.138 22.4717 139.372 23.4867 139.838 24.35C140.328 25.2133 140.958 25.8783 141.728 26.345C142.522 26.7883 143.362 27.01 144.248 27.01C145.158 27.01 145.998 26.7767 146.768 26.31C147.562 25.8433 148.192 25.1783 148.658 24.315C149.148 23.4517 149.393 22.425 149.393 21.235ZM175.984 20.885C175.984 21.585 175.937 22.215 175.844 22.775H161.669C161.786 24.175 162.276 25.2717 163.139 26.065C164.002 26.8583 165.064 27.255 166.324 27.255C168.144 27.255 169.439 26.4733 170.209 24.91H175.494C174.934 26.7767 173.861 28.3167 172.274 29.53C170.687 30.72 168.739 31.315 166.429 31.315C164.562 31.315 162.882 30.9067 161.389 30.09C159.919 29.25 158.764 28.0717 157.924 26.555C157.107 25.0383 156.699 23.2883 156.699 21.305C156.699 19.2983 157.107 17.5367 157.924 16.02C158.741 14.5033 159.884 13.3367 161.354 12.52C162.824 11.7033 164.516 11.295 166.429 11.295C168.272 11.295 169.917 11.6917 171.364 12.485C172.834 13.2783 173.966 14.41 174.759 15.88C175.576 17.3267 175.984 18.995 175.984 20.885ZM170.909 19.485C170.886 18.225 170.431 17.2217 169.544 16.475C168.657 15.705 167.572 15.32 166.289 15.32C165.076 15.32 164.049 15.6933 163.209 16.44C162.392 17.1633 161.891 18.1783 161.704 19.485H170.909ZM184.461 14.62C185.091 13.5933 185.907 12.7883 186.911 12.205C187.937 11.6217 189.104 11.33 190.411 11.33V16.475H189.116C187.576 16.475 186.409 16.8367 185.616 17.56C184.846 18.2833 184.461 19.5433 184.461 21.34V31H179.561V11.61H184.461V14.62ZM201.306 11.295C202.753 11.295 204.024 11.5867 205.121 12.17C206.218 12.73 207.081 13.465 207.711 14.375V11.61H212.646V31.14C212.646 32.9367 212.284 34.535 211.561 35.935C210.838 37.3583 209.753 38.4783 208.306 39.295C206.859 40.135 205.109 40.555 203.056 40.555C200.303 40.555 198.039 39.9133 196.266 38.63C194.516 37.3467 193.524 35.5967 193.291 33.38H198.156C198.413 34.2667 198.961 34.9667 199.801 35.48C200.664 36.0167 201.703 36.285 202.916 36.285C204.339 36.285 205.494 35.8533 206.381 34.99C207.268 34.15 207.711 32.8667 207.711 31.14V28.13C207.081 29.04 206.206 29.7983 205.086 30.405C203.989 31.0117 202.729 31.315 201.306 31.315C199.673 31.315 198.179 30.895 196.826 30.055C195.473 29.215 194.399 28.0367 193.606 26.52C192.836 24.98 192.451 23.2183 192.451 21.235C192.451 19.275 192.836 17.5367 193.606 16.02C194.399 14.5033 195.461 13.3367 196.791 12.52C198.144 11.7033 199.649 11.295 201.306 11.295ZM207.711 21.305C207.711 20.115 207.478 19.1 207.011 18.26C206.544 17.3967 205.914 16.7433 205.121 16.3C204.328 15.8333 203.476 15.6 202.566 15.6C201.656 15.6 200.816 15.8217 200.046 16.265C199.276 16.7083 198.646 17.3617 198.156 18.225C197.689 19.065 197.456 20.0683 197.456 21.235C197.456 22.4017 197.689 23.4283 198.156 24.315C198.646 25.1783 199.276 25.8433 200.046 26.31C200.839 26.7767 201.679 27.01 202.566 27.01C203.476 27.01 204.328 26.7883 205.121 26.345C205.914 25.8783 206.544 25.225 207.011 24.385C207.478 23.5217 207.711 22.495 207.711 21.305Z" fill="white"/>
<g clip-path="url(#clip0)">
<path d="M31.9943 16.0144H17.0002L13.0195 19L17.0002 21.9855H31.9943V16.0144Z" fill="#FFBD2F"/>
<path d="M2.00586 16.0144H17V21.9855H2.00586V16.0144Z" fill="#FFBD2F"/>
<path d="M6.96165 2L2.74121 6.22044L3.37402 6.92231C9.58184 13.8077 9.58184 24.1923 3.37402 31.0777L2.74121 31.7796L6.96165 36L7.66405 35.2356C11.7378 30.8025 13.9813 25.0366 13.9813 19.0001C13.9813 12.9635 11.7378 7.19758 7.66412 2.76437L6.96165 2Z" fill="#FFBD2F"/>
<path d="M30.626 6.92231L31.2588 6.22044L27.0384 2L26.336 2.76437C22.2622 7.19751 20.0187 12.9635 20.0187 18.9999C20.0187 25.0365 22.2622 30.8024 26.3359 35.2355L27.0383 35.9999L31.2587 31.7794L30.6259 31.0776C24.4181 24.1923 24.4181 13.8077 30.626 6.92231Z" fill="#FFBD2F"/>
</g>
<defs>
<clipPath id="clip0">
<rect width="34" height="34" fill="white" transform="translate(0 2)"/>
</clipPath>
</defs>
</svg>
